<?xml version="1.0" standalone="no"?><!DOCTYPE svg PUBLIC "-//W3C//DTD SVG 1.1//EN" "http://www.w3.org/Graphics/SVG/1.1/DTD/svg11.dtd"><svg t="1727187407482" class="icon" viewBox="0 0 1024 1024" version="1.1" xmlns="http://www.w3.org/2000/svg" p-id="7593" xmlns:xlink="http://www.w3.org/1999/xlink" width="200" height="200"><path d="M336 512a144 144 0 1 0 0-288 144 144 0 0 0 0 288z m0-64a80 80 0 1 1 0-160 80 80 0 0 1 0 160z" fill="#FAAC08" p-id="7594"></path><path d="M832 96a128 128 0 0 1 128 128v560.64A143.36 143.36 0 0 1 816.64 928a143.808 143.808 0 0 1-143.84-143.264l-0.416-108.416a64 64 0 0 0-64-63.744h-192.224a64 64 0 0 0-64 64v107.36a144.064 144.064 0 0 1-288.16 0V224a128 128 0 0 1 128-128h640z m0 64H192a64 64 0 0 0-64 64v559.936a80.064 80.064 0 0 0 160.16 0v-107.36a128 128 0 0 1 128-128h192.224a128 128 0 0 1 128 127.488l0.416 108.416A79.808 79.808 0 0 0 816.64 864 79.36 79.36 0 0 0 896 784.64V224a64 64 0 0 0-64-64z m-80 96v80H832v64h-80V480h-64v-80H608v-64h80V256h64z" fill="#1C1C1E" p-id="7595"></path></svg>